<?xml version="1.0" encoding="iso-8859-1"?>
<!-- Generator: Adobe Illustrator 19.0.0, SVG Export Plug-In . SVG Version: 6.00 Build 0)  -->
<svg version="1.1" xmlns="http://www.w3.org/2000/svg" xmlns:xlink="http://www.w3.org/1999/xlink" x="0px" y="0px"
	 viewBox="0 0 512 512" style="enable-background:new 0 0 512 512;" xml:space="preserve">
<g id="_x30_3_x2C__cat_x2C__kitty_x2C__animal_x2C__feline_x2C__animals">
	<g id="XMLID_839_">
		<g id="XMLID_840_">
			<path id="XMLID_749_" d="M369.905,108.93c-11.725-11.726-30.703-11.724-42.427,0c-3.905,3.905-3.905,10.237,0,14.143
				c3.906,3.905,10.236,3.905,14.143,0c3.908-3.909,10.234-3.908,14.142,0c3.904,3.905,10.238,3.906,14.142,0
				C373.811,119.167,373.811,112.835,369.905,108.93z"/>
			<path id="XMLID_748_" d="M417.479,108.929c-3.905,3.905-3.905,10.237,0,14.143c3.906,3.905,10.236,3.905,14.143,0
				c3.908-3.909,10.234-3.908,14.142,0c3.904,3.905,10.238,3.906,14.142,0c3.906-3.905,3.906-10.236,0.001-14.142
				C448.18,97.204,429.202,97.206,417.479,108.929z"/>
			<path id="XMLID_842_" d="M490.332,16.987c-3.468-1.667-7.579-1.196-10.579,1.205L433.8,54.955
				c-26.053-11.16-55.274-10.685-80.215,0l-45.953-36.763c-3.002-2.402-7.307-2.871-10.771-1.205
				c-3.465,1.666-5.86,5.169-5.86,9.013v107.692c0,13.841,2.961,27.046,7.964,39.099C192.083,198.679,116,294.734,116,406v70H93.258
				C61.686,476,36,450.315,36,418.743V193.097C36,145.072,75.071,106,123.096,106H126c5.522,0,10-4.477,10-10s-4.478-10-10-10
				h-2.904C64.043,86,16,134.043,16,193.097v225.646C16,461.343,50.657,496,93.258,496c37.429,0,324.923,0,362.742,0
				c5.522,0,10-4.477,10-10v-7.57c0-29.678-21.659-54.392-50-59.167V312.493c30.591-14.992,50-45.825,50-80.342v-26.148
				c18.526-18.525,30-44.103,30-72.31V26.001C496,22.156,493.797,18.653,490.332,16.987z M446,232.15
				c0,28.6-17.159,53.943-43.714,64.565C398.489,298.234,396,301.912,396,306v122.43c0,5.522,4.478,10,10,10
				c21.24,0,38.667,16.57,39.927,37.57h-69.988c-1.281-32-27.669-58-59.938-58h-17.957c13.77-26,9.588-59.577-12.544-81.718
				c-18.96-18.949-47.544-25.323-72.827-16.399c-5.208,1.838-7.939,7.604-6.102,12.812s7.55,7.967,12.758,6.128
				c18.061-6.372,38.486-1.731,52.029,11.803c19.49,19.498,19.49,51.229,0,70.727c-6.148,6.148-2.048,16.646,7.072,16.646H316
				c21.24,0,38.667,17,39.927,38c-20.009,0-148.124,0-169.927,0v-40c0-5.522-4.478-10-10-10s-10,4.478-10,10v40h-30v-70
				c0-103.771,72.365-193.109,173.014-214.955c18.42,27.11,49.504,44.955,84.679,44.955c19.101,0,36.992-5.267,52.308-14.417V232.15
				z M476,133.693c0,45.385-37.115,82.308-82.5,82.308S311,179.078,311,133.693V46.807l34.74,27.639
				c3.055,2.444,7.351,2.883,10.848,1.119c23.286-11.749,50.799-11.74,74.063,0c3.494,1.765,7.72,1.327,10.776-1.119L476,46.807
				V133.693z"/>
			<path id="XMLID_744_" d="M404,156.473v-11.242c0-5.523-4.478-10-10-10s-10,4.477-10,10v11.242l-12.61,12.456
				c-3.905,3.905-3.982,10.237-0.077,14.143c3.906,3.905,10.198,3.905,14.104,0l8.294-8.314l8.304,8.314
				c1.953,1.953,4.507,2.929,7.066,2.929s5.116-0.976,7.069-2.929c3.905-3.905,4.058-10.237,0.153-14.143L404,156.473z"/>
		</g>
	</g>
</g>
<g id="Layer_1">
</g>
</svg>
