<?xml version="1.0" encoding="UTF-8" standalone="no"?> <svg xmlns:inkscape="http://www.inkscape.org/namespaces/inkscape" xmlns:sodipodi="http://sodipodi.sourceforge.net/DTD/sodipodi-0.dtd" xmlns="http://www.w3.org/2000/svg" xmlns:svg="http://www.w3.org/2000/svg" xmlns:rdf="http://www.w3.org/1999/02/22-rdf-syntax-ns#" width="64" height="64" viewBox="0 0 16.933333 16.933334" version="1.1" id="svg8" inkscape:version="1.2 (1:1.2.1+202207142221+cd75a1ee6d)" sodipodi:docname="01 tool_line.tar">
  <defs id="defs2">
    <inkscape:path-effect effect="fillet_chamfer" id="path-effect6711" is_visible="true" lpeversion="1" nodesatellites_param="F,0,0,1,0,0,0,1 @ F,0,0,1,0,0,0,1 @ F,0,0,1,0,0,0,1 @ F,0,0,1,0,0,0,1 @ F,0,0,1,0,0,0,1 @ F,0,0,1,0,0,0,1 @ F,0,0,1,0,0,0,1 @ F,0,0,1,0,0,0,1 @ F,0,0,1,0,0,0,1 @ F,0,0,1,0,0,0,1 @ F,0,0,1,0,0,0,1 @ F,0,0,1,0,0,0,1 @ F,0,0,1,0,0,0,1 @ F,0,0,1,0,0,0,1 @ F,0,0,1,0,0,0,1 @ F,0,0,1,0,0,0,1 @ F,0,0,1,0,0,0,1 @ F,0,0,1,0,0,0,1 @ F,0,0,1,0,0,0,1 @ F,0,0,1,0,0,0,1 | F,0,0,1,0,0,0,1 @ F,0,0,1,0,0,0,1 @ F,0,1,1,0,0.23476692,0,1 @ F,0,0,1,0,0.23476692,0,1 @ F,0,0,1,0,0,0,1 @ F,0,0,1,0,0,0,1 @ F,0,0,1,0,0,0,1 @ F,0,0,1,0,0,0,1 @ F,0,0,1,0,0,0,1 @ F,0,0,1,0,0,0,1" unit="px" method="auto" mode="F" radius="0" chamfer_steps="1" flexible="false" use_knot_distance="true" apply_no_radius="true" apply_with_radius="true" only_selected="false" hide_knots="false"/>
    <inkscape:path-effect effect="fillet_chamfer" id="path-effect18338" is_visible="true" lpeversion="1" nodesatellites_param="F,0,0,1,0,0.033055739,0,1 @ F,0,0,1,0,0,0,1 @ F,0,0,1,0,0,0,1 @ F,0,0,1,0,0,0,1 @ F,0,0,1,0,0,0,1" unit="px" method="auto" mode="F" radius="0" chamfer_steps="1" flexible="false" use_knot_distance="true" apply_no_radius="true" apply_with_radius="true" only_selected="false" hide_knots="false"/>
    <inkscape:path-effect effect="fillet_chamfer" id="path-effect14523" is_visible="true" lpeversion="1" nodesatellites_param="F,0,0,1,0,0.041694285,0,1 @ F,0,0,1,0,0,0,1 @ F,0,0,1,0,0,0,1 @ F,0,0,1,0,0,0,1" unit="px" method="auto" mode="F" radius="0" chamfer_steps="1" flexible="false" use_knot_distance="true" apply_no_radius="true" apply_with_radius="true" only_selected="false" hide_knots="false"/>
    <inkscape:path-effect effect="fillet_chamfer" id="path-effect40290" is_visible="true" lpeversion="1" nodesatellites_param="F,0,0,1,0,0.08344418,0,1 @ F,0,0,1,0,0,0,1 @ F,0,0,1,0,0,0,1 @ F,0,0,1,0,0,0,1 @ F,0,0,1,0,0,0,1 @ F,0,0,1,0,0,0,1 @ F,0,0,1,0,0,0,1" unit="px" method="auto" mode="F" radius="0" chamfer_steps="1" flexible="false" use_knot_distance="true" apply_no_radius="true" apply_with_radius="true" only_selected="false" hide_knots="false"/>
    <inkscape:path-effect effect="fillet_chamfer" id="path-effect38836" is_visible="true" lpeversion="1" nodesatellites_param="F,0,0,1,0,0.085281661,0,1 @ F,0,0,1,0,0,0,1 @ F,0,0,1,0,0,0,1 @ F,0,0,1,0,0,0,1 @ F,0,0,1,0,0,0,1 @ F,0,0,1,0,0,0,1 @ F,0,0,1,0,0,0,1" unit="px" method="auto" mode="F" radius="0" chamfer_steps="1" flexible="false" use_knot_distance="true" apply_no_radius="true" apply_with_radius="true" only_selected="false" hide_knots="false"/>
    <inkscape:path-effect effect="fillet_chamfer" id="path-effect23508" is_visible="true" lpeversion="1" nodesatellites_param="F,0,0,1,0,0,0,1 @ F,0,0,1,0,0,0,1 @ F,0,0,1,0,0,0,1 @ F,0,0,1,0,0,0,1 @ F,0,0,1,0,0,0,1 @ F,0,0,1,0,0,0,1 @ F,0,0,1,0,0,0,1 @ F,0,0,1,0,0,0,1" unit="px" method="auto" mode="F" radius="0" chamfer_steps="1" flexible="false" use_knot_distance="true" apply_no_radius="true" apply_with_radius="true" only_selected="false" hide_knots="false"/>
    <inkscape:path-effect effect="fillet_chamfer" id="path-effect14795" is_visible="true" lpeversion="1" nodesatellites_param="F,0,1,1,0,0.10352272,0,1 @ F,0,1,1,0,0.10352272,0,1 @ F,0,1,1,0,0.10352272,0,1 @ F,0,1,1,0,0.10352272,0,1 @ F,0,1,1,0,0.10352272,0,1 @ F,0,1,1,0,0.10352272,0,1 @ F,0,1,1,0,0.10352272,0,1 @ F,0,1,1,0,0.10352272,0,1 @ F,0,1,1,0,0.10352272,0,1 @ F,0,1,1,0,0.10352272,0,1 @ IF,0,0,1,0,0.10352272,0,1 @ F,0,1,1,0,0.10352272,0,1" unit="px" method="auto" mode="F" radius="0" chamfer_steps="1" flexible="false" use_knot_distance="true" apply_no_radius="true" apply_with_radius="true" only_selected="false" hide_knots="false"/>
    <inkscape:path-effect effect="fillet_chamfer" id="path-effect11186" is_visible="true" lpeversion="1" nodesatellites_param="F,0,1,1,0,0.20186345,0,1 @ F,0,0,1,0,0,0,1 @ F,0,0,1,0,0,0,1 @ F,0,0,1,0,0.20186345,0,1" unit="px" method="auto" mode="F" radius="0" chamfer_steps="1" flexible="false" use_knot_distance="true" apply_no_radius="true" apply_with_radius="true" only_selected="false" hide_knots="false"/>
    <inkscape:path-effect effect="fillet_chamfer" id="path-effect9731" is_visible="true" lpeversion="1" nodesatellites_param="F,0,0,1,0,0.12549777,0,1 @ F,0,0,1,0,0,0,1 @ F,0,0,1,0,0,0,1 @ F,0,0,1,0,0.20914322,0,1" unit="px" method="auto" mode="F" radius="0" chamfer_steps="1" flexible="false" use_knot_distance="true" apply_no_radius="true" apply_with_radius="true" only_selected="false" hide_knots="false"/>
    <inkscape:path-effect fuse_tolerance="0" vertical_pattern="true" prop_units="false" tang_offset="0" normal_offset="0" spacing="4" scale_y_rel="false" prop_scale="1" copytype="repeated_stretched" pattern="m 0.5367033,0.52921956 h 4.479679" is_visible="true" id="path-effect1328" effect="skeletal" lpeversion="0" hide_knot="false"/>
    <inkscape:path-effect fuse_tolerance="0" vertical_pattern="true" prop_units="false" tang_offset="0" normal_offset="0" spacing="4" scale_y_rel="false" prop_scale="1" copytype="repeated_stretched" pattern="m 0.5367033,0.52921956 h 4.479679" is_visible="true" id="path-effect1324" effect="skeletal" lpeversion="0" hide_knot="false"/>
    <inkscape:path-effect fuse_tolerance="0" vertical_pattern="true" prop_units="false" tang_offset="0" normal_offset="0" spacing="4" scale_y_rel="false" prop_scale="1" copytype="repeated_stretched" pattern="m 0.5367033,0.52921956 h 4.479679" is_visible="true" id="path-effect1319" effect="skeletal" lpeversion="0" hide_knot="false"/>
    <inkscape:path-effect effect="skeletal" id="path-effect1282" is_visible="true" pattern="m 0.5367033,0.52921956 h 4.479679" copytype="repeated_stretched" prop_scale="1" scale_y_rel="false" spacing="4" normal_offset="0" tang_offset="0" prop_units="false" vertical_pattern="true" fuse_tolerance="0" lpeversion="0" hide_knot="false"/>
  </defs>
  <sodipodi:namedview inkscape:guide-bbox="true" id="base" pagecolor="#ffffff" bordercolor="#666666" borderopacity="1.0" inkscape:pageopacity="0.0" inkscape:pageshadow="2" inkscape:zoom="1.0227259" inkscape:cx="53.777851" inkscape:cy="296.75596" inkscape:document-units="px" inkscape:current-layer="layer43" showgrid="false" units="px" inkscape:window-width="1920" inkscape:window-height="1023" inkscape:window-x="0" inkscape:window-y="0" inkscape:window-maximized="1" inkscape:object-paths="true" inkscape:snap-global="true" inkscape:snap-smooth-nodes="false" inkscape:document-rotation="0" showguides="true" inkscape:pagecheckerboard="0" inkscape:lockguides="false" inkscape:showpageshadow="2" inkscape:deskcolor="#d1d1d1">
    <inkscape:grid type="xygrid" id="grid2157" empspacing="1" originx="0" originy="0"/>
  </sodipodi:namedview>
  <metadata id="metadata5">
    <rdf:RDF/>
  </metadata>
<g inkscape:groupmode="layer" id="layer32" inkscape:label="29. moon" style="display:inline">
    <path id="path43056" style="color:#000000;fill:#000000;stroke-linecap:round;stroke-linejoin:round;stroke-dashoffset:15.4029;paint-order:markers fill stroke" d="m 6.8940684,2.9445299 a 0.52921795,0.52921795 0 0 0 -0.156579,0.0269 c -2.802037,0.9151 -4.148144,3.19458 -4.218864,5.55057 a 0.52921795,0.52921795 0 0 0 0,0.0155 c 0,1.9992601 1.118748,3.7495801 2.773474,4.6953201 a 0.52916503,0.52916503 0 0 0 0.722436,-0.19534 0.52916503,0.52916503 0 0 0 -0.197404,-0.72243 c -1.344297,-0.76832 -2.234966,-2.16733 -2.238106,-3.7692801 0.05083,-1.62078 0.777446,-3.07586 2.332158,-3.99821 -0.708682,1.6473 -1.086907,3.27829 -0.498161,4.68344 0.639431,1.5261101 2.443007,2.4984101 5.0839266,2.9905101 -0.7104386,0.41491 -1.4903886,0.70992 -2.3378416,0.71055 a 0.52916503,0.52916503 0 0 0 -0.527099,0.52969 0.52916503,0.52916503 0 0 0 0.529166,0.5271 c 1.488973,-10e-4 2.9182206,-0.56903 3.9765016,-1.58802 A 0.52921795,0.52921795 0 0 0 11.819349,11.49288 C 8.4923624,11.18397 6.9405104,10.13528 6.3897064,8.8206899 c -0.550804,-1.31459 -0.141846,-3.13291 0.972551,-5.08393 a 0.52921795,0.52921795 0 0 0 -0.468189,-0.7922 z m 2.312004,0.37414 a 0.23737291,0.23277047 0 0 0 -0.238745,0.22737 l -0.0026,0.21446 -0.204122,-0.0651 h -10e-4 l -0.0026,-10e-4 a 0.23742239,0.232819 0 0 0 -0.149862,0.44184 l 0.207223,0.0687 -0.127124,0.17105 -0.0016,0.002 a 0.2373971,0.2327942 0 0 0 0.382406,0.27596 l 0.130741,-0.17157 0.128158,0.17312 a 0.2373737,0.23277125 0 0 0 0.386023,-0.27079 l -0.0021,-0.003 -0.124541,-0.1726 0.205156,-0.0651 0.0026,-0.001 a 0.23737291,0.23277047 0 0 0 -0.143661,-0.44338 l -0.0026,5.2e-4 -0.206189,0.063 5.17e-4,-0.21136 v -0.003 a 0.23737291,0.23277047 0 0 0 -0.236161,-0.23047 z m 2.7104286,1.27641 a 0.52922021,0.52921946 0 0 0 -0.472323,0.2992 l -0.476456,0.97824 -1.0738366,0.16226 a 0.52922021,0.52921946 0 0 0 -0.287837,0.90434 l 0.7823806,0.75344 -0.17725,1.07384 a 0.52922021,0.52921946 0 0 0 0.771529,0.55397 l 0.960148,-0.51315 0.966866,0.5023 a 0.52922021,0.52921946 0 0 0 0.764294,-0.56483 l -0.192236,-1.07073 0.775663,-0.7643 a 0.52922021,0.52921946 0 0 0 -0.299206,-0.90072 l -1.077971,-0.14779 -0.487308,-0.97462 a 0.52922021,0.52921946 0 0 0 -0.47594,-0.29145 z m 0.01137,1.72392 0.132808,0.26613 a 0.52922021,0.52921946 0 0 0 0.398942,0.28422 l 0.291455,0.0403 -0.210323,0.20671 a 0.52922021,0.52921946 0 0 0 -0.147278,0.4687 l 0.05116,0.29198 -0.262,-0.13695 a 0.52922021,0.52921946 0 0 0 -0.490926,0.004 l -0.261999,0.14004 0.04806,-0.29145 a 0.52922021,0.52921946 0 0 0 -0.155029,-0.46871 l -0.210323,-0.20309 0.291455,-0.0444 a 0.52922021,0.52921946 0 0 0 0.394808,-0.29146 z m -2.7217976,2.29133 a 0.23737291,0.23277047 0 0 0 -0.238745,0.22738 l -0.0026,0.21446 -0.204122,-0.0651 h -0.001 l -0.0026,-10e-4 a 0.23742239,0.232819 0 0 0 -0.149862,0.44184 l 0.207223,0.0687 -0.127124,0.17105 -0.0016,0.002 a 0.23739457,0.23279171 0 0 0 0.382406,0.27595 l 0.130741,-0.17156 0.128158,0.17311 a 0.2373737,0.23277125 0 0 0 0.386023,-0.27078 l -0.0021,-0.003 -0.124541,-0.17259 0.205156,-0.0651 0.0026,-10e-4 a 0.23737291,0.23277047 0 0 0 -0.143661,-0.44338 l -0.0026,5.1e-4 -0.206189,0.063 5.17e-4,-0.21136 v -0.003 a 0.23737291,0.23277047 0 0 0 -0.236161,-0.23048 z"/>
  </g>
  </svg>