<?xml version="1.0" encoding="UTF-8" standalone="no"?> <svg xmlns="http://www.w3.org/2000/svg" viewBox="0 0 64 64"><g id="Layer_6" data-name="Layer 6"><path d="M59.65,37.59a13.43,13.43,0,0,0-8-6.35,1,1,0,0,0-.58,1.91c8.28,2.58,9.57,10.81,6,16.79-1.49,2.56-4.6,4.93-6.63,6.23l.35-2.29c.53-5,1.55-10.4-1.49-14.88-.31-.41-5.73-6.57-8.15-8.85a58.12,58.12,0,0,1-9.74-11.1c-3.43-4.94-5.12-8.28-8.56-12.2C21.52,5.13,19,5.13,17,5a5.38,5.38,0,0,0-4.32,1.58,21.42,21.42,0,0,1-4,3L4.56,11.86a3,3,0,0,0-1.32,3.83l.94,2.19a5.59,5.59,0,0,0,5.75,3.21l2-.27a1.24,1.24,0,0,1,1.36.95c.53,1.64-.2,3.74-.61,5.33a11.64,11.64,0,0,0,1.83,9.72l2.43,3.37a20.69,20.69,0,0,1,1.21,8.88l-.37,4c0,.64-.85,1.26-1.22,1.69-.71.56-1.86,1.08-1.86,2.18v1.07a1,1,0,0,0,1,1h4.69c.5.06,1.41-.87,1.8-1.1a4.15,4.15,0,0,0,1.63-2.71L25.89,42,28.3,46.7c-.16,2.47.93,4.92,2.09,7.06l-2.58,0a2.42,2.42,0,0,0-2.42,2.45l.06,1.91a1,1,0,0,0,1,1H49.14a1.06,1.06,0,0,0,.4-.08c1.36-.59,6.9-4,9.26-8C59.77,49.27,62.69,43.36,59.65,37.59ZM21,7.88,19.39,14a7.54,7.54,0,0,1-1.32,2.16,6.47,6.47,0,0,1-.68-1.78c-.8-2-.67-4.61-.24-7.43C18.24,7.14,20.2,7,21,7.88Zm6.35,48.27a.42.42,0,0,1,.42-.42l4.19.06a1,1,0,0,0,.91-1.44l-1.7-3.42c-2.06-3.83-.69-9.8,4.12-10.49l4.6-.73a1,1,0,0,0,.83-1.14,1,1,0,0,0-1.14-.83l-4.6.73a7.83,7.83,0,0,0-6.11,5l-2.64-5.2a1,1,0,0,0-1.88.29L21.84,55c-.08,1-1.07,1.58-1.78,2.11H16.85a8.91,8.91,0,0,0,2-1.73,3.38,3.38,0,0,0,.93-2l.37-4a23,23,0,0,0-1.36-9.89,15.25,15.25,0,0,1-.21-8.42,1,1,0,0,0-.72-1.22,1,1,0,0,0-1.22.72,17.3,17.3,0,0,0-.53,5.16,9.64,9.64,0,0,1-1.48-8c.47-1.83,1.2-4.06.69-5.94a3.28,3.28,0,0,0-3.64-2.82l-2,.27A3.6,3.6,0,0,1,6,17.1l-.94-2.2a1,1,0,0,1,.45-1.29l4.14-2.29c2-1,3.78-3,5.42-4A16,16,0,0,0,15.48,15c.37,1.92,1.78,4.25,3.78,2.82a8.77,8.77,0,0,0,2-3.18l1.32-5C27.41,16.08,32,24.79,38.48,30.4c2.47,2.09,8.3,8.72,9.2,9.77,2.55,3.74,1.62,8.79,1.13,13.46l-.52,3.42H27.42Z"/></g></svg>