<?xml version="1.0" encoding="UTF-8" standalone="no"?> <svg xmlns="http://www.w3.org/2000/svg" viewBox="0 0 64 64"><g id="Layer_23" data-name="Layer 23"><path d="M55.7,30.49a1,1,0,0,0-1.09.9A16.66,16.66,0,0,1,54.16,34a1,1,0,0,0,1.94.47,20.49,20.49,0,0,0,.51-2.91A1,1,0,0,0,55.7,30.49Z"/><path d="M54.57,26.3a1,1,0,0,0,2-.27,22,22,0,0,0-4.67-10.94,1,1,0,0,0-1.56,1.27A19.84,19.84,0,0,1,54.57,26.3Z"/><path d="M55.75,52.69H48.51C61.92,43.76,65.09,24,55.09,11.32h1.84a1,1,0,0,0,0-2H7.07a1,1,0,0,0,0,2H8.91C-1.09,24,2.08,43.77,15.49,52.69H8.25a1,1,0,0,0,0,2h47.5A1,1,0,0,0,55.75,52.69ZM5,28.85a27,27,0,0,1,6.49-17.53h41C63.73,24,59.78,45,44.68,52.69H19.32A26.93,26.93,0,0,1,5,28.85Z"/><path d="M33.17,34.19c-.73-3.59-5-7.22-7.79-5.46a3.9,3.9,0,0,0-1.77,3.42c-3.39-2.58-7.8-1.39-7.26,2.82l-.06.07L13.6,33.48a2.82,2.82,0,0,0-4.21,2.43v5.31a2.81,2.81,0,0,0,4.2,2.42l1.83-1c-.83,4.52,4.7,4.29,7.47,2.24l.39.05c1.52,5.67,9.37,1.62,10.57-2.38C38.76,39.47,37.7,36.83,33.17,34.19Zm-16,6a1.06,1.06,0,0,0-.75-.33,8.65,8.65,0,0,1,0-2.59,1.15,1.15,0,0,0,.75-.33,9.13,9.13,0,0,1,4.65-2.4,10.75,10.75,0,0,0,0,8A9.12,9.12,0,0,1,17.18,40.19ZM24.26,43a8.6,8.6,0,0,1,0-8.84,11.38,11.38,0,0,1,4.65.31,10.65,10.65,0,0,0,0,8.22A11.38,11.38,0,0,1,24.26,43Zm2.12-12.52c.94-.54,2.82.31,4.07,2.39a11.72,11.72,0,0,0-4.84-.79A1.93,1.93,0,0,1,26.38,30.46Zm-7.68,2.7a1.92,1.92,0,0,1,1.79-.32,14.38,14.38,0,0,0-2.07.8A1.22,1.22,0,0,1,18.7,33.16Zm-6.11,8.75a.8.8,0,0,1-1.2-.69V35.91a.81.81,0,0,1,1.21-.7l2,1.15a10.52,10.52,0,0,0,0,4.4Zm5.49,2.32c-.73-.14-.88-.58-.67-1.3a12.14,12.14,0,0,0,2.43,1.15A4,4,0,0,1,18.08,44.23Zm9.25,1.39c-.47.07-1.51.11-1.86-.56a11.62,11.62,0,0,0,4.4-.6A5.91,5.91,0,0,1,27.33,45.62Zm7.34-6.24a18.67,18.67,0,0,1-3.89,2.56,8.62,8.62,0,0,1,0-6.76C32.32,36.07,36.26,37.91,34.67,39.38Z"/><path d="M32.69,37.13a1,1,0,0,0-1.54.31,1,1,0,0,0,0,.74,1.24,1.24,0,0,0,.19.28.81.81,0,0,0,.32.21.94.94,0,0,0,1-1.54Z"/><path d="M41,34a2.91,2.91,0,0,0,0,5.81A2.91,2.91,0,0,0,41,34Zm0,3.81A.91.91,0,0,1,41,36,.91.91,0,0,1,41,37.76Z"/><path d="M43.47,28.7a3.79,3.79,0,0,0,7.57,0A3.79,3.79,0,0,0,43.47,28.7Zm5.57,0a1.79,1.79,0,0,1-3.57,0A1.79,1.79,0,0,1,49,28.7Z"/><path d="M38.13,25.69a3.09,3.09,0,0,0,0-6.17A3.09,3.09,0,0,0,38.13,25.69Zm0-4.17a1.09,1.09,0,0,1,0,2.17A1.09,1.09,0,0,1,38.13,21.52Z"/><path d="M44.94,20.38a3.09,3.09,0,0,0,0-6.17A3.09,3.09,0,0,0,44.94,20.38Zm0-4.17a1.09,1.09,0,0,1,0,2.17A1.09,1.09,0,0,1,44.94,16.21Z"/></g></svg>